<?xml version="1.0" encoding="UTF-8" standalone="no"?>
<!-- Created with Inkscape (http://www.inkscape.org/) -->

<svg xmlns:dc="http://purl.org/dc/elements/1.1/" xmlns:cc="http://creativecommons.org/ns#" xmlns:rdf="http://www.w3.org/1999/02/22-rdf-syntax-ns#" xmlns:svg="http://www.w3.org/2000/svg" xmlns="http://www.w3.org/2000/svg" xmlns:xlink="http://www.w3.org/1999/xlink" version="1.0" width="128" height="128" id="svg4865">
 <metadata id="metadata3821">
  <rdf:RDF>
   <cc:Work rdf:about="">
    <dc:format>image/svg+xml</dc:format>
    <dc:type rdf:resource="http://purl.org/dc/dcmitype/StillImage" />
    <dc:title></dc:title>
   </cc:Work>
  </rdf:RDF>
 </metadata>
 <defs id="defs4867">
  <linearGradient x1="72.421997" y1="122" x2="72.421997" y2="53.998001" id="linearGradient2892" gradientUnits="userSpaceOnUse" gradientTransform="translate(9,3)">
   <stop id="stop2492" style="stop-color:#365f0e;stop-opacity:1" offset="0" />
   <stop id="stop2494" style="stop-color:#84a718;stop-opacity:1" offset="1" />
  </linearGradient>
  <radialGradient cx="69.447998" cy="51.695" r="31" id="radialGradient2890" gradientUnits="userSpaceOnUse" gradientTransform="matrix(0,2.3879,-2.619,0,224.25,-100.53)">
   <stop id="stop3244" style="stop-color:#eef87e;stop-opacity:1" offset="0" />
   <stop id="stop3246" style="stop-color:#cde34f;stop-opacity:1" offset="0.26238" />
   <stop id="stop3248" style="stop-color:#93b723;stop-opacity:1" offset="0.66093999" />
   <stop id="stop3250" style="stop-color:#5a7e0d;stop-opacity:1" offset="1" />
  </radialGradient>
  <linearGradient x1="83.217003" y1="54" x2="83.217003" y2="122.17" id="linearGradient2887" gradientUnits="userSpaceOnUse" gradientTransform="matrix(1.0058,0,0,0.99392,8.4923,3.3302)">
   <stop id="stop3609" style="stop-color:#ffffff;stop-opacity:1" offset="0" />
   <stop id="stop3611" style="stop-color:#ffffff;stop-opacity:0" offset="1" />
  </linearGradient>
  <radialGradient cx="5" cy="41.5" r="5" id="radialGradient2480" xlink:href="#linearGradient3681" gradientUnits="userSpaceOnUse" gradientTransform="matrix(0.59382,0,0,1.5367,41.141,-103.94)" />
  <linearGradient x1="17.554001" y1="46" x2="17.554001" y2="35" id="linearGradient2478" gradientUnits="userSpaceOnUse" gradientTransform="matrix(1.757,0,0,1.397,-17.394,-16.412)">
   <stop id="stop3705" style="stop-color:#000000;stop-opacity:0" offset="0" />
   <stop id="stop3711" style="stop-color:#000000;stop-opacity:1" offset="0.5" />
   <stop id="stop3707" style="stop-color:#000000;stop-opacity:0" offset="1" />
  </linearGradient>
  <linearGradient id="linearGradient3681">
   <stop id="stop3683" style="stop-color:#000000;stop-opacity:1" offset="0" />
   <stop id="stop3685" style="stop-color:#000000;stop-opacity:0" offset="1" />
  </linearGradient>
  <radialGradient cx="5" cy="41.5" r="5" id="radialGradient2476" xlink:href="#linearGradient3681" gradientUnits="userSpaceOnUse" gradientTransform="matrix(0.59382,0,0,1.5367,-6.6595,-103.94)" />
  <linearGradient x1="15.464" y1="8.0320997" x2="15.464" y2="45.042" id="linearGradient2509" gradientUnits="userSpaceOnUse" gradientTransform="matrix(2.7071,0,0,2.6646,-0.96979,0.92052)">
   <stop id="stop2517" style="stop-color:#c9af8b;stop-opacity:1" offset="0" />
   <stop id="stop2519" style="stop-color:#ad8757;stop-opacity:1" offset="0.25060999" />
   <stop id="stop2521" style="stop-color:#c2a57f;stop-opacity:1" offset="0.26043999" />
   <stop id="stop2523" style="stop-color:#9d7d53;stop-opacity:1" offset="1" />
  </linearGradient>
  <linearGradient x1="24.997" y1="15.14" x2="24.997" y2="38.515999" id="linearGradient2507" gradientUnits="userSpaceOnUse" gradientTransform="matrix(3.4711,0,0,4.1495,-17.402,-39.823)">
   <stop id="stop2527" style="stop-color:#dac197;stop-opacity:1" offset="0" />
   <stop id="stop2529" style="stop-color:#c1a581;stop-opacity:1" offset="0.24596" />
   <stop id="stop2531" style="stop-color:#dac197;stop-opacity:1" offset="0.25641999" />
   <stop id="stop2533" style="stop-color:#a68b60;stop-opacity:1" offset="1" />
  </linearGradient>
  <radialGradient cx="24" cy="31" r="20" id="radialGradient2504" gradientUnits="userSpaceOnUse" gradientTransform="matrix(4.5505,0,0,1.8,-45.213,27.2)">
   <stop id="stop3225" style="stop-color:#cbad7a;stop-opacity:1" offset="0" />
   <stop id="stop3227" style="stop-color:#cbae7d;stop-opacity:0" offset="1" />
  </radialGradient>
  <linearGradient x1="44.994999" y1="17.5" x2="3.0051999" y2="17.5" id="linearGradient2498" gradientUnits="userSpaceOnUse" gradientTransform="matrix(2.708,0,0,2.6575,-0.99212,0.99404)" spreadMethod="reflect">
   <stop id="stop2537" style="stop-color:#ffffff;stop-opacity:0" offset="0" />
   <stop id="stop2539" style="stop-color:#ffffff;stop-opacity:1" offset="0.1" />
   <stop id="stop2541" style="stop-color:#ffffff;stop-opacity:1" offset="0.89999998" />
   <stop id="stop2543" style="stop-color:#ffffff;stop-opacity:0" offset="1" />
  </linearGradient>
  <linearGradient x1="63.5" y1="47.5" x2="63.5" y2="23.5" id="linearGradient4799" gradientUnits="userSpaceOnUse">
   <stop id="stop4795" style="stop-color:#ad8757;stop-opacity:1" offset="0" />
   <stop id="stop4797" style="stop-color:#c7ad88;stop-opacity:0.39216" offset="1" />
  </linearGradient>
  <linearGradient x1="26" y1="22" x2="26" y2="8" id="linearGradient2495" gradientUnits="userSpaceOnUse" gradientTransform="matrix(3,0,0,2.7143,-8,0.28571)">
   <stop id="stop3982" style="stop-color:#ffffff;stop-opacity:1" offset="0" />
   <stop id="stop3984" style="stop-color:#ffffff;stop-opacity:1" offset="0.32469001" />
   <stop id="stop3986" style="stop-color:#ffffff;stop-opacity:0.69019997" offset="0.37369001" />
   <stop id="stop3988" style="stop-color:#ffffff;stop-opacity:0" offset="1" />
  </linearGradient>
  <linearGradient x1="63.5" y1="47.5" x2="63.5" y2="23.5" id="linearGradient4803" gradientUnits="userSpaceOnUse" gradientTransform="translate(1,0)">
   <stop id="stop4807" style="stop-color:#ffffff;stop-opacity:1" offset="0" />
   <stop id="stop4811" style="stop-color:#ffffff;stop-opacity:0.31373" offset="1" />
  </linearGradient>
  <radialGradient cx="5" cy="41.5" r="5" id="radialGradient3847" xlink:href="#linearGradient3681" gradientUnits="userSpaceOnUse" gradientTransform="matrix(0.59382,0,0,1.5367,-6.6595,-103.94)" />
  <linearGradient x1="17.554001" y1="46" x2="17.554001" y2="35" id="linearGradient3849" xlink:href="#linearGradient2478" gradientUnits="userSpaceOnUse" gradientTransform="matrix(1.757,0,0,1.397,-17.394,-16.412)" />
  <radialGradient cx="5" cy="41.5" r="5" id="radialGradient3851" xlink:href="#linearGradient3681" gradientUnits="userSpaceOnUse" gradientTransform="matrix(0.59382,0,0,1.5367,41.141,-103.94)" />
  <radialGradient cx="69.447998" cy="51.695" r="31" id="radialGradient5087" xlink:href="#radialGradient2890" gradientUnits="userSpaceOnUse" gradientTransform="matrix(0,2.3879,-2.619,0,224.25,-100.53)" />
  <linearGradient x1="72.421997" y1="122" x2="72.421997" y2="53.998001" id="linearGradient5089" xlink:href="#linearGradient2892" gradientUnits="userSpaceOnUse" gradientTransform="translate(9,3)" />
  <linearGradient x1="83.217003" y1="54" x2="83.217003" y2="122.17" id="linearGradient5091" xlink:href="#linearGradient2887" gradientUnits="userSpaceOnUse" gradientTransform="matrix(1.0058,0,0,0.99392,8.4923,3.3302)" />
  <radialGradient cx="62.477135" cy="-7.1483583" r="9.7552834" fx="62.477135" fy="-7.1483583" id="radialGradient3867" xlink:href="#linearGradient3911" gradientUnits="userSpaceOnUse" gradientTransform="matrix(0,46.191876,-46.191852,0,46.946731,-2290.2965)" />
  <linearGradient x1="25.315001" y1="10.905" x2="25.315001" y2="35.925999" id="linearGradient3911" gradientUnits="userSpaceOnUse" gradientTransform="matrix(17.728908,0,0,17.728908,331.8561,320.29334)">
   <stop id="stop3913" style="stop-color:#00d8ff;stop-opacity:1" offset="0" />
   <stop id="stop3915" style="stop-color:#0038b4;stop-opacity:1" offset="0.40000001" />
   <stop id="stop3917" style="stop-color:#000000;stop-opacity:1" offset="1" />
  </linearGradient>
  <radialGradient cx="17.056574" cy="15.282791" r="20.428061" fx="17.056574" fy="15.282791" id="radialGradient3869" xlink:href="#linearGradient4153" gradientUnits="userSpaceOnUse" gradientTransform="matrix(14.408057,10.448329,-5.3366262,10.482491,215.46401,296.64646)" />
  <linearGradient x1="25.315001" y1="10.905" x2="25.315001" y2="35.925999" id="linearGradient4153" gradientUnits="userSpaceOnUse" gradientTransform="matrix(17.728908,0,0,17.728908,331.8561,320.29334)">
   <stop id="stop4149" style="stop-color:#fff100;stop-opacity:1" offset="0" />
   <stop id="stop4175" style="stop-color:#559400;stop-opacity:1" offset="0.40000001" />
   <stop id="stop4151" style="stop-color:#474d00;stop-opacity:1" offset="1" />
  </linearGradient>
  <clipPath id="clipPath4616">
   <path d="m 796.55865,397.12161 a 396.4397,395.5199 0 1 1 -9.5e-4,-0.8701" transform="matrix(1.8242102,0,0,1.6988524,-181.82264,-177.00944)" id="path4618" style="fill:#ffffff;fill-opacity:1;fill-rule:nonzero;stroke:none" />
  </clipPath>
  <filter color-interpolation-filters="sRGB" id="filter4736">
   <feGaussianBlur stdDeviation="22.65427" id="feGaussianBlur4738" />
  </filter>
  <linearGradient x1="413.20978" y1="740.89252" x2="633.56519" y2="577.83362" id="linearGradient4017" xlink:href="#linearGradient3935" gradientUnits="userSpaceOnUse" />
  <linearGradient id="linearGradient3935">
   <stop id="stop3937" style="stop-color:#ff28ff;stop-opacity:1" offset="0" />
   <stop id="stop3983" style="stop-color:#7500c6;stop-opacity:1" offset="0.40000001" />
   <stop id="stop3939" style="stop-color:#0000a4;stop-opacity:1" offset="1" />
  </linearGradient>
  <filter color-interpolation-filters="sRGB" id="filter4013">
   <feGaussianBlur stdDeviation="2.4328628" id="feGaussianBlur4015" />
  </filter>
  <linearGradient x1="770.28937" y1="678.34869" x2="909.43878" y2="852.21008" id="linearGradient4213" xlink:href="#linearGradient4217" gradientUnits="userSpaceOnUse" gradientTransform="matrix(0,-1.2700293,-1.2674955,0,1321.3453,1358.9426)" />
  <linearGradient x1="25.315001" y1="10.905" x2="25.315001" y2="35.925999" id="linearGradient4217" gradientUnits="userSpaceOnUse" gradientTransform="matrix(17.728908,0,0,17.728908,331.8561,320.29334)">
   <stop id="stop4219" style="stop-color:#74ff92;stop-opacity:0.78431374" offset="0" />
   <stop id="stop4221" style="stop-color:#b9cc00;stop-opacity:0.78431374" offset="0.40000001" />
   <stop id="stop4223" style="stop-color:#162800;stop-opacity:0.78431374" offset="1" />
  </linearGradient>
  <linearGradient x1="30.445467" y1="33.677288" x2="20.732309" y2="23.402824" id="linearGradient4215" xlink:href="#linearGradient4242" gradientUnits="userSpaceOnUse" gradientTransform="matrix(0,-22.516233,-22.471311,0,913.80416,939.11361)" />
  <linearGradient x1="29.812" y1="36" x2="29.812" y2="16.857" id="linearGradient4242" gradientUnits="userSpaceOnUse" gradientTransform="matrix(17.728908,0,0,17.728908,330.56641,321.53255)">
   <stop id="stop4246" style="stop-color:#fed4ff;stop-opacity:1" offset="0" />
   <stop id="stop4248" style="stop-color:#c30069;stop-opacity:1" offset="1" />
  </linearGradient>
  <linearGradient x1="610.36719" y1="596.98615" x2="725.44946" y2="755.36401" id="linearGradient4208" xlink:href="#linearGradient4217" gradientUnits="userSpaceOnUse" gradientTransform="matrix(0,-1.2700292,-1.2674952,0,1321.3456,1358.9428)" />
  <linearGradient x1="25.315001" y1="10.905" x2="25.315001" y2="35.925999" id="linearGradient3145" gradientUnits="userSpaceOnUse" gradientTransform="matrix(17.728908,0,0,17.728908,331.8561,320.29334)">
   <stop id="stop3147" style="stop-color:#74ff92;stop-opacity:0.78431374" offset="0" />
   <stop id="stop3149" style="stop-color:#b9cc00;stop-opacity:0.78431374" offset="0.40000001" />
   <stop id="stop3151" style="stop-color:#162800;stop-opacity:0.78431374" offset="1" />
  </linearGradient>
  <linearGradient x1="28.090048" y1="23.056065" x2="12.253378" y2="17.812757" id="linearGradient4210" xlink:href="#linearGradient4137" gradientUnits="userSpaceOnUse" gradientTransform="matrix(0,-22.516231,-22.471314,0,915.37595,937.76931)" />
  <linearGradient x1="17.849001" y1="29.073999" x2="17.849001" y2="10" id="linearGradient4137" gradientUnits="userSpaceOnUse" gradientTransform="matrix(17.728908,0,0,17.728908,331.62499,320.29252)">
   <stop id="stop2492-7" style="stop-color:#cedeff;stop-opacity:1" offset="0" />
   <stop id="stop2494-2" style="stop-color:#00119b;stop-opacity:1" offset="1" />
  </linearGradient>
  <linearGradient x1="610.36719" y1="596.98615" x2="725.44946" y2="755.36401" id="linearGradient3166" xlink:href="#linearGradient4217" gradientUnits="userSpaceOnUse" gradientTransform="matrix(0,-1.2700292,-1.2674952,0,1321.3456,1358.9428)" />
  <linearGradient x1="28.090048" y1="23.056065" x2="12.253378" y2="17.812757" id="linearGradient3168" xlink:href="#linearGradient4137" gradientUnits="userSpaceOnUse" gradientTransform="matrix(0,-22.516231,-22.471314,0,915.37595,937.76931)" />
  <linearGradient x1="63.5" y1="47.5" x2="63.5" y2="23.5" id="linearGradient5236" xlink:href="#linearGradient4799" gradientUnits="userSpaceOnUse" gradientTransform="translate(0.23659933,-12.066543)" />
  <linearGradient x1="63.5" y1="47.5" x2="63.5" y2="23.5" id="linearGradient5239" xlink:href="#linearGradient4803" gradientUnits="userSpaceOnUse" gradientTransform="matrix(1.0691641,0,0,1.0691641,-3.3573691,-15.047935)" />
  <linearGradient x1="26" y1="22" x2="26" y2="8" id="linearGradient5242" xlink:href="#linearGradient2495" gradientUnits="userSpaceOnUse" gradientTransform="matrix(3.2074925,0,0,2.814261,-12.979846,-12.811509)" />
  <linearGradient x1="44.994999" y1="17.5" x2="3.0051999" y2="17.5" id="linearGradient5245" xlink:href="#linearGradient2498" gradientUnits="userSpaceOnUse" gradientTransform="matrix(2.8128307,0,0,2.7603758,-3.508069,-12.770123)" spreadMethod="reflect" />
  <radialGradient cx="24" cy="31" r="20" id="radialGradient5248" xlink:href="#radialGradient2504" gradientUnits="userSpaceOnUse" gradientTransform="matrix(4.8652315,0,0,1.9244955,-52.76665,14.03333)" />
  <linearGradient x1="24.997" y1="15.14" x2="24.997" y2="38.515999" id="linearGradient5251" xlink:href="#linearGradient2507" gradientUnits="userSpaceOnUse" gradientTransform="matrix(3.7111758,0,0,4.4364966,-23.032128,-57.625259)" />
  <linearGradient x1="15.464" y1="8.0320997" x2="15.464" y2="45.042" id="linearGradient5253" xlink:href="#linearGradient2509" gradientUnits="userSpaceOnUse" gradientTransform="matrix(2.8943342,0,0,2.8488948,-5.463398,-14.063748)" />
 </defs>
 <g transform="matrix(2.7543513,0,0,2.4484836,-1.8288359,10.636632)" id="g3305" style="opacity:0.3">
  <rect width="2.9602001" height="15.367" x="-3.6903999" y="-47.848" transform="scale(-1,-1)" id="rect2484" style="fill:url(#radialGradient3847)" />
  <rect width="40.411999" height="15.367" x="3.6903999" y="32.481998" id="rect2486" style="fill:url(#linearGradient3849)" />
  <rect width="2.9602001" height="15.367" x="44.110001" y="-47.848" transform="scale(1,-1)" id="rect3444" style="fill:url(#radialGradient3851)" />
 </g>
 <g id="g5312">
  <path d="m 20.616498,10.152263 h 85.380242 c 4.9823,0 7.21685,-0.8168402 8.64953,2.848255 l 8.6923,22.79137 v 73.140452 c 0,4.42633 0.29938,3.75276 -4.68293,3.75276 H 9.3443021 c -4.9805954,0 -4.6826195,0.67357 -4.6826195,-3.75276 V 35.791888 l 8.6877064,-22.79137 c 1.392053,-3.5913239 2.282666,-2.848255 7.267109,-2.848255 z" id="path2488" style="fill:url(#linearGradient5251);stroke:url(#linearGradient5253);stroke-width:1.06296313;stroke-linecap:round;display:block" />
  <rect width="117.60807" height="76.979813" x="5.1959438" y="35.202774" id="rect3209" style="fill:url(#radialGradient5248);fill-rule:evenodd" />
  <path d="M 6.3515052,35.536153 H 121.64848" id="path3273" style="opacity:0.3;fill:none;stroke:url(#linearGradient5245);stroke-width:1.03871155px;stroke-linecap:square" />
  <path d="M 64.534553,10.612004 V 35.20278" id="path4801" style="opacity:0.3;fill:none;stroke:url(#linearGradient5239);stroke-width:1.06916404px" />
  <g transform="matrix(0.084375,0,0,0.084375,31.314685,41.488449)" id="g3094" style="opacity:0.75">
   <g transform="matrix(1.5569134,0,0,1.5600256,-300.61097,-726.90352)" id="g4251" style="stroke-width:20;stroke-miterlimit:4;stroke-dasharray:none">
    <path d="m 705.64493,722.35314 c 0,141.19332 -114.46456,255.65396 -255.6417,255.65396 -141.19004,0 -255.64811,-114.46193 -255.64811,-255.65396 0,-141.18684 114.45807,-255.63584 255.64811,-255.63584 141.17714,0 255.6417,114.449 255.6417,255.63584 l 0,0 z" id="path4150" style="fill:url(#radialGradient3867);fill-opacity:1;fill-rule:nonzero;stroke:none" />
    <path d="m 454.37073,475.37582 c -5.21007,-0.68075 -10.44151,1.18735 -15.66227,1.78102 -5.22075,0.59368 -10.50176,0.79337 -15.66226,1.78103 -5.84484,1.11863 -11.48567,3.11679 -17.2285,4.67519 -5.74284,1.5584 -15.44906,10.34295 -17.22851,4.67519 -0.46917,-1.49437 2.9536,-1.0587 4.43512,-1.57471 1.50179,-0.52307 3.94894,-0.0585 4.51475,-1.54209 0.48591,-1.27412 -1.34248,-2.37469 -2.01372,-3.56204 -0.67125,-1.18735 -0.78147,-2.97369 -2.01373,-3.56204 -2.04605,-0.9769 -4.47493,0.74209 -6.7124,1.11313 -2.23747,0.37105 -4.67705,0.11421 -6.7124,1.11314 -1.37131,0.67302 -2.23747,2.07786 -3.3562,3.11679 -1.11873,1.03894 -1.97319,2.46806 -3.3562,3.1168 -1.56553,0.73435 -3.43078,0.44526 -5.14618,0.66788 -1.71539,0.22263 -3.48674,0.18038 -5.14617,0.66789 -1.66321,0.48862 -3.13245,1.48418 -4.69868,2.22627 -1.56623,0.7421 -3.13966,1.46922 -4.69868,2.22628 -0.74935,0.36389 -1.49164,0.7421 -2.23746,1.11314 -0.74582,0.37105 -1.59694,0.5811 -2.23746,1.11315 -0.28607,0.23763 -0.4475,0.59367 -0.67125,0.89051 -0.22375,0.29684 -0.35617,0.69278 -0.67125,0.89051 -0.96571,0.60603 -2.23746,0.44526 -3.35619,0.66788 -1.11874,0.22263 -2.45644,-0.032 -3.3562,0.66789 -1.23371,0.9596 -1.34247,2.81995 -2.01371,4.22993 -0.67124,1.40998 -0.44965,4.21329 -2.01371,4.22993 -1.99632,0.0212 -1.78998,-3.56205 -2.68498,-5.34307 -0.89499,-1.78102 -0.69027,-5.42605 -2.68497,-5.34307 -0.80049,0.0333 -0.59665,1.48418 -0.89498,2.22627 -0.29832,0.7421 -0.77232,1.43612 -0.89497,2.22628 -0.30819,1.98549 0.29835,4.00731 0.44752,6.01096 0.14918,2.00365 1.22986,4.15969 0.44753,6.01096 -0.71902,1.70145 -2.83413,2.3747 -4.25119,3.56205 -1.41706,1.18735 -3.17918,2.05698 -4.25119,3.56205 -1.33672,1.87672 -1.64081,4.30414 -2.46121,6.45621 -0.8204,2.15207 -3.77083,4.56055 -2.46121,6.45621 0.97371,1.40944 3.43079,0 5.14618,0 1.71539,0 3.69612,0.91463 5.14618,0 1.32221,-0.83399 1.34247,-2.81995 2.01371,-4.22993 0.67124,-1.40998 1.36912,-2.80763 2.01371,-4.22993 0.23348,-0.51518 0.4475,-1.03893 0.67125,-1.5584 0.22375,-0.51946 0.31967,-1.115 0.67125,-1.55839 1.72025,-2.16946 4.44318,-3.30967 6.68099,-4.94253 2.23722,-1.63242 4.00433,-4.43446 6.7438,-4.8531 1.8645,-0.28493 3.57995,1.18735 5.36992,1.78102 1.78997,0.59367 3.6787,0.94743 5.36992,1.78102 3.79857,1.87228 7.00864,4.75214 10.51393,7.12679 3.50544,2.37475 6.29224,7.4222 10.51827,7.12141 2.31379,-0.16468 3.43075,-3.11679 5.14613,-4.67519 1.71538,-1.5584 5.5378,-2.39339 5.14613,-4.67519 -0.35535,-2.07023 -3.87828,-1.63261 -5.81742,-2.44891 -1.93914,-0.8163 -4.28118,-1.01329 -5.81742,-2.44891 -1.45729,-1.36184 -1.78997,-3.56205 -2.68495,-5.34307 -0.89498,-1.78102 -1.04787,-4.20268 -2.68495,-5.34307 -2.70816,-1.88651 -6.56324,-0.7421 -9.84486,-1.11315 -3.28162,-0.37104 -7.41225,1.11616 -9.84486,-1.11314 -0.2793,-0.25596 -0.14917,-0.74209 -0.22376,-1.11314 -0.0746,-0.37105 -0.49308,-0.84674 -0.22376,-1.11314 1.02839,-1.01724 2.83412,0.59368 4.25117,0.89051 1.41706,0.29684 2.86308,1.30165 4.25118,0.89052 1.11061,-0.32895 1.64082,-1.6326 2.46123,-2.44891 0.82041,-0.8163 1.44144,-1.90035 2.46123,-2.4489 1.60931,-0.86565 3.57994,-0.74209 5.36991,-1.11314 1.78998,-0.37105 3.62733,-0.56142 5.36992,-1.11314 1.3144,-0.41615 2.51895,-1.12174 3.79465,-1.64423 1.26073,-0.51635 3.08961,-2.62535 3.81272,-1.47257 0.81088,1.29269 -2.23746,2.07786 -3.3562,3.11679 -1.11873,1.03894 -3.47078,1.59599 -3.35619,3.1168 0.36575,4.85402 8.05488,5.49149 12.08232,8.23723 4.02744,2.74575 9.8052,3.93258 12.08232,8.23724 0.76373,1.44376 0,3.26521 0,4.89781 0,1.63261 0.62716,3.38996 0,4.89782 -0.8479,2.03858 -3.13245,3.11679 -4.69868,4.67519 -1.56622,1.5584 -4.34408,2.49651 -4.69867,4.67519 -0.74687,4.58891 4.1766,8.31145 6.2649,12.46718 2.0883,4.15573 1.8027,11.13232 6.2649,12.46718 1.56729,0.46885 2.83413,-1.63262 4.25119,-2.44893 1.41706,-0.81631 3.06381,-1.32547 4.25119,-2.44893 2.38195,-2.25373 3.57995,-5.49148 5.36993,-8.23723 1.78998,-2.74574 2.78591,-6.21737 5.36993,-8.23722 6.05663,-4.73427 14.6166,-4.81539 21.79769,-7.56992 7.14564,-2.74092 15.10033,-13.57097 21.1617,-8.90455 0.83268,0.64105 -0.29835,2.07786 -0.44753,3.11678 -0.14917,1.03893 -0.87037,2.15583 -0.44752,3.11679 0.58171,1.32198 2.38663,1.63261 3.57994,2.44891 1.19331,0.8163 2.13322,2.44452 3.57994,2.44891 2.5213,0.008 4.17661,-2.81995 6.26491,-4.22993 2.08831,-1.40998 5.94348,-1.73418 6.26492,-4.22993 0.20181,-1.56689 -2.08831,-2.3747 -3.13246,-3.56205 -1.04415,-1.18735 -1.57063,-3.30492 -3.13246,-3.56205 -1.61436,-0.26578 -2.83413,1.63261 -4.2512,2.44891 -1.41706,0.8163 -2.6234,2.28374 -4.25119,2.44891 -0.46914,0.0476 -0.89498,-0.29683 -1.34248,-0.44525 -0.44749,-0.14842 -1.30937,0.0242 -1.34247,-0.44525 -0.0234,-0.3313 0.59615,-0.29535 0.89398,-0.44352 0.29882,-0.14866 0.67093,-0.2008 0.89597,-0.44697 3.87312,-4.23686 4.17664,-10.68616 6.26496,-16.02924 2.08832,-5.34308 8.56897,-10.7752 6.26496,-16.02924 -1.95936,-4.46809 -9.09903,-3.56205 -13.64855,-5.34307 -4.54951,-1.78102 -8.80289,-4.70994 -13.64854,-5.34307 z m -122.61321,48.08766 c 0,0 3.43078,2.3747 5.14617,3.56204 1.71539,1.18735 3.15381,2.94 5.14617,3.56205 1.35243,0.42225 2.83413,0 4.2512,0 1.41707,0 3.24918,1.00002 4.2512,0 0.999,-0.997 0,-2.81995 0,-4.22993 0,-1.40998 0.77529,-3.05122 0,-4.22993 -1.02598,-1.55984 -3.43078,-1.48419 -5.14617,-2.22628 -1.71539,-0.74209 -3.28495,-2.40292 -5.14617,-2.22628 -1.70767,0.16207 -2.83413,1.92944 -4.2512,2.89416 -1.41707,0.96473 -4.2512,2.89417 -4.2512,2.89417 l 0,0 z m 237.61899,-5.78833 c -3.14176,-0.18078 -6.11574,1.48419 -9.17361,2.22628 -3.05787,0.74209 -6.28509,0.97979 -9.17361,2.22628 -2.12465,0.91685 -3.87827,2.52312 -5.8174,3.78467 -1.93914,1.26156 -4.71467,1.75353 -5.81741,3.78468 -0.53136,0.97871 0,2.22628 0,3.33942 0,1.11314 0.53816,2.36442 0,3.33942 -1.74557,3.16247 -6.11574,3.85888 -9.17362,5.78832 -3.05787,1.92944 -7.75797,2.46567 -9.17361,5.78832 -1.15853,2.71919 1.19332,5.78834 1.78998,8.68251 0.59666,2.89418 -0.96334,7.59613 1.78998,8.68252 2.03784,0.80408 3.57994,-2.52313 5.36992,-3.78469 1.78997,-1.26156 3.19324,-4.03721 5.36991,-3.78469 1.67675,0.19452 2.23746,2.52313 3.3562,3.78469 1.11873,1.26156 2.05254,2.71446 3.35619,3.78469 1.13515,0.9319 2.5358,1.48419 3.80371,2.22628 1.2679,0.74209 2.41721,2.7133 3.8037,2.22628 2.1763,-0.76445 1.6408,-4.30415 2.46121,-6.45623 0.8204,-2.15207 2.43432,-4.15381 2.4612,-6.45622 0.0156,-1.33818 -0.89498,-2.52311 -1.34247,-3.78467 -0.4475,-1.26156 -1.42597,-2.44899 -1.34248,-3.78467 0.0621,-0.9943 0.89498,-1.78103 1.34248,-2.67155 0.44749,-0.89052 0.74027,-1.87703 1.34247,-2.67155 1.46287,-1.93007 3.57995,-3.2652 5.36993,-4.89781 1.78998,-1.6326 3.10934,-4.02217 5.36993,-4.8978 0.76482,-0.29625 1.64081,0 2.46121,0 0.8204,0 2.01853,-0.68934 2.46121,0 1.05982,1.65036 -1.64081,3.56206 -2.46121,5.34308 -0.8204,1.78103 -2.0413,3.4282 -2.46121,5.34309 -0.34973,1.59485 0,3.2652 0,4.8978 0,1.6326 -1.26662,3.86462 0,4.8978 1.75757,1.43366 4.43438,-0.98124 6.67363,-1.35257 2.23854,-0.37121 5.92235,-2.98198 6.75117,-0.87373 0.93638,2.38184 -4.17661,2.96839 -6.26491,4.45258 -2.0883,1.48419 -4.90568,2.28317 -6.26491,4.45258 -0.47964,0.76553 -0.29835,1.78102 -0.44752,2.67152 -0.14918,0.89051 8.4e-4,1.88735 -0.44753,2.67153 -1.5457,2.70338 -4.77326,4.00731 -7.15989,6.01097 -2.38664,2.00366 -4.12405,5.29801 -7.1599,6.01097 -2.46476,0.57884 -4.92243,-1.18736 -7.38364,-1.78104 -2.46122,-0.59367 -5.81757,0.20469 -7.38365,-1.78103 -0.87381,-1.10795 0,-2.81996 0,-4.22994 0,-1.40997 1.24516,-3.56376 0,-4.22993 -1.18392,-0.63341 -2.23747,1.48419 -3.3562,2.22629 -1.11873,0.7421 -2.96403,0.94407 -3.3562,2.22629 -0.39927,1.30546 1.04415,2.52312 1.56623,3.78468 0.52208,1.26156 2.32664,2.65018 1.56623,3.78468 -0.99522,1.48483 -3.57995,0 -5.36992,0 -1.78997,0 -3.81467,-0.88434 -5.36992,0 -1.65225,0.9395 -1.93914,3.26521 -2.9087,4.89781 -0.96957,1.63261 -1.78595,3.3661 -2.90871,4.89782 -1.05873,1.44436 -2.38663,2.67154 -3.57995,4.0073 -1.19332,1.33577 -2.02653,3.11339 -3.57995,4.00731 -1.91317,1.10094 -4.32577,0.89051 -6.48865,1.33576 -2.16289,0.44525 -5.85666,-0.77607 -6.48866,1.33576 -0.51237,1.71208 2.5358,2.52312 3.8037,3.78468 1.26789,1.26157 2.93071,2.22468 3.80369,3.78469 0.63329,1.13168 0.59666,2.52311 0.89499,3.78466 0.29832,1.26156 1.70103,2.76828 0.89498,3.78467 -0.97201,1.22566 -3.13245,0 -4.69868,0 -1.56623,0 -3.17933,-0.37956 -4.69868,0 -2.29664,0.57374 -4.1766,2.22629 -6.2649,3.33943 -2.08831,1.11314 -5.04745,1.313 -6.26491,3.33943 -1.68245,2.80039 0,6.53041 0,9.79561 0,3.26521 -2.31346,7.48677 0,9.79562 0.68559,0.68422 1.93914,0 2.90871,0 0.96956,0 2.02024,-0.38743 2.9087,0 1.20715,0.5264 1.78997,1.92945 2.68496,2.89418 0.89499,0.96473 1.39086,2.64825 2.68496,2.89418 2.19429,0.417 4.02744,-1.92945 6.04116,-2.89418 2.01372,-0.96473 4.53587,-1.24714 6.04116,-2.89418 1.44329,-1.5792 1.49164,-4.0073 2.23747,-6.01095 0.74582,-2.00364 0.86808,-4.36749 2.23746,-6.01094 1.11135,-1.33378 2.98329,-1.78103 4.47494,-2.67154 1.49165,-0.89051 3.3464,-1.35221 4.47494,-2.67154 0.52019,-0.60814 0.59666,-1.48419 0.89499,-2.22628 0.29832,-0.74209 0.29093,-1.70099 0.89498,-2.22628 1.85442,-1.61263 4.77326,-1.18735 7.15989,-1.78103 2.38663,-0.59367 4.80729,-2.49731 7.15989,-1.78102 1.91628,0.58344 2.68496,2.96837 4.02744,4.45256 1.34248,1.48419 2.44454,3.22687 4.02744,4.45256 1.26437,0.97904 2.83413,1.48419 4.2512,2.22628 1.41706,0.7421 3.76094,0.70596 4.25119,2.22629 0.56063,1.7386 -1.64082,3.26522 -2.46122,4.89782 -0.82041,1.63261 -3.63401,3.49573 -2.46123,4.89783 0.84673,1.0123 2.53581,-0.7421 3.80371,-1.11315 1.2679,-0.37105 2.82206,-0.23051 3.80371,-1.11315 1.3137,-1.1812 1.34247,-3.26521 2.01371,-4.89782 0.67124,-1.63261 2.30744,-3.15764 2.01371,-4.89782 -0.41188,-2.44017 -3.28161,-3.71047 -4.92242,-5.5657 -1.64081,-1.85523 -5.94211,-3.31009 -4.92242,-5.5657 0.27605,-0.61063 1.34248,0 2.01372,0 0.67123,0 1.38137,-0.22475 2.01371,0 1.99475,0.70897 3.28162,2.67154 4.92243,4.0073 1.6408,1.33577 3.85912,2.17983 4.92242,4.00731 0.90858,1.56156 0.59666,3.56205 0.89499,5.34307 0.29833,1.78103 0.12474,3.70914 0.89499,5.34308 0.92135,1.95447 2.83412,3.26521 4.25119,4.89782 1.41706,1.63261 2.1707,5.49307 4.25118,4.89782 2.31523,-0.66241 0.74582,-4.74939 1.11874,-7.12409 0.37291,-2.3747 -0.30392,-5.18455 1.11873,-7.12409 0.49225,-0.6711 1.49164,-0.7421 2.23747,-1.11315 0.74582,-0.37105 1.42275,-1.28809 2.23746,-1.11315 3.37417,0.72454 4.45986,5.26226 6.5467,8.0058 2.09262,2.75115 2.96008,6.78699 5.98312,8.46868 2.15372,1.1981 4.92243,0.29686 7.38365,0.44529 2.46121,0.14844 5.03634,-0.30809 7.38364,0.4453 1.59418,0.51167 2.83412,1.78103 4.25118,2.67154 1.41706,0.89052 3.91695,1.03393 4.25118,2.67155 0.23489,1.15087 -1.34248,1.92944 -2.01371,2.89416 -0.67124,0.96472 -1.2336,2.01479 -2.01372,2.89416 -1.25879,1.41893 -2.83412,2.52312 -4.25118,3.78468 -1.41707,1.26156 -2.47681,3.10962 -4.25119,3.78468 -1.95133,0.74238 -4.17661,0 -6.26492,0 -2.08831,0 -4.20209,0.32457 -6.26492,0 -2.86483,-0.45075 -5.51908,-1.78102 -8.27862,-2.67153 -2.75954,-0.89051 -5.3941,-2.37082 -8.27862,-2.67153 -1.41714,-0.14774 -2.83413,0.29686 -4.25119,0.44529 -1.41706,0.14844 -2.98573,-0.20823 -4.25119,0.4453 -1.40587,0.72604 -2.0883,2.3747 -3.13245,3.56205 -1.04416,1.18736 -1.5504,3.50948 -3.13246,3.56206 -4.21033,0.13994 -5.96658,-5.93675 -8.94987,-8.90513 -2.98329,-2.96838 -5.31664,-6.77721 -8.94987,-8.90513 -1.87271,-1.09681 -4.1766,-1.18734 -6.2649,-1.78102 -2.08831,-0.59367 -4.10018,-1.6116 -6.26491,-1.78101 -3.07096,-0.24033 -6.11574,0.74209 -9.17361,1.11313 -3.05788,0.37105 -6.15196,0.51571 -9.17362,1.11314 -2.73291,0.54034 -5.36992,1.48419 -8.05488,2.22628 -2.68496,0.74209 -5.69317,0.75131 -8.05488,2.22628 -5.91007,3.69105 -9.28171,10.38587 -13.83295,15.65676 -4.54835,5.26756 -9.85009,10.01148 -13.46416,15.95645 -2.336,3.84261 -3.43078,8.31143 -5.14617,12.46715 -1.71539,4.15572 -5.93621,8.04232 -5.14617,12.46715 0.21264,1.19095 1.64081,1.78103 2.46122,2.67154 0.8204,0.89052 2.37747,1.46473 2.46121,2.67155 0.18115,2.61053 -2.98329,4.30414 -4.47493,6.45621 -1.49165,2.15207 -4.21734,3.85209 -4.47494,6.45621 -0.40594,4.1038 3.28162,7.56935 4.92243,11.35403 1.6408,3.78468 2.70004,7.87753 4.92242,11.35403 3.31921,5.19229 8.20827,9.19921 12.31054,13.80047 4.10178,4.6007 6.14613,13.37513 12.3016,13.80539 2.6355,0.18422 4.02744,-3.41363 6.04116,-5.12045 2.01372,-1.70681 3.41231,-5.38273 6.04116,-5.12044 1.31886,0.13159 1.64081,2.07787 2.46122,3.1168 0.8204,1.03894 1.15321,2.90297 2.46121,3.11681 2.54944,0.4168 4.32578,-2.81996 6.48867,-4.22994 2.16288,-1.40997 3.92586,-4.55503 6.48866,-4.22993 1.09808,0.1393 1.49164,1.6326 2.23747,2.4489 0.74582,0.81631 1.22483,2.00275 2.23746,2.44891 1.97864,0.87177 4.32577,0 6.48865,0 2.16288,0 4.51348,-0.87959 6.48865,0 1.73355,0.77199 2.5358,2.81996 3.8037,4.22993 1.26789,1.40998 3.38523,2.38203 3.80369,4.22994 0.58105,2.56591 -1.49164,5.04624 -2.23746,7.56935 -0.74583,2.52312 -2.8003,4.99941 -2.23747,7.56936 0.48456,2.21257 2.98329,3.41363 4.47493,5.12045 1.49164,1.70682 3.70514,2.98992 4.47493,5.12045 1.00924,2.79325 -0.14918,5.93674 -0.22376,8.90511 -0.0746,2.96837 -0.89265,6.01182 -0.22377,8.90511 0.54614,2.36239 2.23747,4.30414 3.3562,6.45621 1.11873,2.15208 3.27974,4.03296 3.3562,6.45622 0.0639,2.02687 -1.64081,3.71047 -2.46121,5.5657 -0.8204,1.85524 -1.98943,3.59325 -2.46121,5.56571 -0.91628,3.83084 -0.47824,7.86315 -0.62748,11.7988 -0.14908,3.93145 -0.90641,7.91751 -0.26757,11.79977 0.93412,5.67669 3.96075,10.80524 5.89994,16.22266 1.93913,5.41728 4.33357,10.70103 5.7349,16.28102 0.71336,2.84056 0.89499,5.78833 1.34248,8.68249 0.44749,2.89416 1.11808,5.76265 1.34248,8.68249 0.11373,1.47984 0,2.96838 0,4.45256 0,1.48419 -1.05158,3.40309 0,4.45257 0.8438,0.84212 2.38663,0 3.57994,0 1.19331,0 2.43586,0.33857 3.57994,0 1.9617,-0.58052 3.43079,-2.22628 5.14618,-3.33942 1.71539,-1.11314 3.18448,-2.7589 5.14618,-3.33942 2.00214,-0.59249 4.17661,0 6.26492,0 2.0883,0 4.35811,0.84985 6.26491,0 4.28527,-1.90992 6.2649,-6.97568 9.39736,-10.46352 3.13245,-3.48784 8.40288,-5.88606 9.39735,-10.46352 0.26419,-1.21605 -0.74582,-2.3747 -1.11873,-3.56205 -0.37291,-1.18735 -1.45111,-2.36277 -1.11873,-3.56205 0.74533,-2.68928 4.17661,-3.71047 6.26492,-5.5657 2.0883,-1.85523 6.12244,-2.77907 6.26491,-5.5657 0.11818,-2.31141 -3.13246,-3.41363 -4.69869,-5.12044 -1.56624,-1.70681 -4.87946,-2.81307 -4.6987,-5.12044 0.1859,-2.37299 3.72911,-2.96837 5.59367,-4.45256 1.86455,-1.48418 3.64602,-3.07875 5.59366,-4.45255 1.7223,-1.21485 3.57995,-2.22629 5.36993,-3.33944 1.78998,-1.11314 3.74643,-1.9959 5.36993,-3.33943 0.93307,-0.77216 1.64081,-1.78102 2.46121,-2.67154 0.8204,-0.89051 2.16777,-1.49781 2.46121,-2.67153 0.5022,-2.0087 -1.04415,-4.0073 -1.56622,-6.01096 -0.52208,-2.00365 -1.30307,-3.95739 -1.56623,-6.01095 -0.64143,-5.0053 10e-6,-10.09213 10e-6,-15.1382 0,-5.0464 -1.06883,-10.20683 -10e-6,-15.13921 0.72491,-3.3453 2.83413,-6.23358 4.2512,-9.35037 1.41706,-3.11679 2.35331,-6.49961 4.25119,-9.35037 1.45805,-2.1901 3.57994,-3.85889 5.36991,-5.78833 1.78997,-1.92944 3.95496,-3.57025 5.36991,-5.78833 2.75976,-4.32621 3.87828,-9.4988 5.81742,-14.2482 1.93914,-4.74939 4.82942,-9.21532 5.81742,-14.24819 0.24304,-1.23802 0,-2.52312 0,-3.78468 0,-1.26156 0.94503,-2.94682 0,-3.78468 -2.14538,-1.90209 -5.69505,0.71361 -8.54909,1.01227 -2.8148,0.29455 -7.25689,3.32748 -8.45566,0.76878 -1.1598,-2.47553 3.87827,-3.85889 5.81741,-5.78834 1.93914,-1.92944 3.69731,-4.05885 5.81741,-5.78833 2.49616,-2.03625 5.36992,-3.56205 8.05488,-5.34307 2.68496,-1.78102 5.63489,-3.2172 8.05488,-5.34307 1.62458,-1.42714 2.83413,-3.26522 4.2512,-4.89783 1.41706,-1.6326 3.495,-2.87398 4.25119,-4.89782 0.62352,-1.66878 0,-3.56205 0,-5.34307 0,-1.78102 0.42425,-3.61311 0,-5.34307 -0.49825,-2.03169 -1.93456,-3.71113 -2.90379,-5.56569 -0.96993,-1.8559 -0.82951,-5.33119 -2.91367,-5.56568 -1.94197,-0.2185 -2.5358,2.96837 -3.80369,4.45255 -1.2679,1.48419 -1.84945,4.4432 -3.8037,4.45256 -1.47785,0.007 -1.93914,-2.22628 -2.9087,-3.33942 -0.96957,-1.11313 -1.83853,-2.32222 -2.90871,-3.33941 -1.30588,-1.24122 -2.83413,-2.22628 -4.25119,-3.33942 -1.41707,-1.11314 -3.46358,-1.72039 -4.2512,-3.33942 -1.00676,-2.06948 0,-4.60098 0,-6.90148 0,-2.30049 -2.15604,-6.08768 0,-6.90147 2.31918,-0.87537 3.28162,3.71047 4.92244,5.5657 1.64081,1.85524 2.60564,4.68407 4.92243,5.56571 1.75463,0.66771 3.72912,-0.44526 5.59368,-0.66789 1.86455,-0.22262 3.80407,-1.23565 5.59367,-0.66788 3.16464,1.00402 5.00396,4.36224 7.39248,6.66459 2.38736,2.30123 3.6089,7.20667 6.92728,7.13834 1.79283,-0.0369 2.38669,-2.67161 3.58004,-4.00742 1.19335,-1.3358 3.13053,-2.27492 3.58004,-4.00741 2.86236,-11.03213 -3.9876,-22.51724 -7.52222,-33.3535 -6.07292,-18.61804 -13.40625,-37.0411 -23.35482,-53.91668 -10.26006,-17.40396 -23.63039,-32.8668 -37.00337,-48.02012 -6.57536,-7.45073 -11.32529,-22.41915 -21.17076,-20.99457 -0.9227,0.13351 -0.89499,1.63261 -1.34249,2.44891 -0.4475,0.8163 -0.79922,1.69271 -1.34249,2.44891 -1.41258,1.96625 -3.28162,3.56205 -4.92242,5.34307 -1.64081,1.78102 -2.49838,5.31172 -4.92243,5.34307 -3.00157,0.0388 -4.1766,-4.30414 -6.2649,-6.45622 -2.08831,-2.15207 -7.43586,-3.6977 -6.26491,-6.45621 0.8146,-1.91903 4.1766,0 6.26491,0 2.0883,0 4.35006,0.83163 6.2649,0 1.30443,-0.56652 1.93914,-2.07786 2.90871,-3.11679 0.96957,-1.03892 3.35045,-1.76721 2.90871,-3.11678 -1.22622,-3.74622 -7.75655,-1.48419 -11.63483,-2.22629 -3.87828,-0.74209 -7.83065,-1.16909 -11.63483,-2.22628 -2.06795,-0.57469 -4.02745,-1.48419 -6.04117,-2.22628 -2.01373,-0.74209 -3.89812,-2.10296 -6.04118,-2.22628 z m -268.94354,5.78833 c -1.78273,1.05419 -1.49164,3.85889 -2.23746,5.78833 -0.74582,1.92944 -0.63308,4.47951 -2.23746,5.78833 -1.09118,0.89016 -2.78142,0.45649 -4.16855,0.70524 -1.89555,0.33994 -4.00995,0.11207 -5.67629,1.07578 -22.10999,12.78709 -37.08894,36.02793 -49.85766,58.11916 -19.88874,34.40957 -42.54287,72.79553 -39.64102,112.41392 0.23122,3.15676 2.87184,5.64665 4.43013,8.40343 1.29094,2.2838 2.20464,4.89091 4.07224,6.73526 2.70735,2.67364 6.56324,3.85889 9.84486,5.78833 3.28161,1.92945 6.33517,4.31182 9.84485,5.78834 3.13372,1.31836 6.56324,1.78102 9.84486,2.67153 3.28161,0.89051 6.98575,0.83381 9.84485,2.67153 1.86727,1.20021 2.83413,3.41363 4.25119,5.12044 1.41706,1.70682 2.64623,3.58825 4.25119,5.12045 1.95965,1.87081 4.32577,3.26521 6.48866,4.89782 2.16288,1.6326 3.85241,4.26318 6.48865,4.89781 1.25148,0.30127 2.53579,-0.44525 3.80369,-0.66788 1.2679,-0.22263 2.52967,-0.85244 3.80369,-0.66788 0.98966,0.14336 1.78998,0.89052 2.68497,1.33577 0.89498,0.44526 2.1587,0.48712 2.68496,1.33578 0.15652,0.25241 0,0.59366 0,0.8905 0,0.29683 0.0507,0.598 0,0.89049 -0.60552,3.49355 -2.38663,6.67885 -3.57995,10.01827 -1.19332,3.33942 -1.9647,6.86051 -3.57995,10.01827 -0.77909,1.52309 -1.93914,2.81996 -2.9087,4.22994 -0.96957,1.40998 -2.7529,2.52695 -2.90871,4.22994 -0.0666,0.72821 0.59666,1.33576 0.89499,2.00364 0.29832,0.66789 0.84095,1.2744 0.89498,2.00365 0.20492,2.76574 -1.49165,5.34308 -2.23747,8.01461 -0.74582,2.67154 -2.55337,5.25931 -2.23747,8.01462 0.65485,5.71157 5.51909,10.09247 8.27863,15.1387 2.75954,5.04623 4.66379,10.66274 8.27863,15.1387 2.35252,2.91293 5.66825,4.89782 8.50238,7.34673 2.83412,2.44891 5.98165,4.57749 8.50237,7.34673 1.47199,1.61712 2.53579,3.56204 3.80369,5.34306 1.2679,1.78103 3.1802,3.24879 3.80369,5.34307 1.05975,3.55966 -0.29835,7.42094 -0.44753,11.1314 -0.14917,3.71047 -1.12443,7.47992 -0.44752,11.13141 0.41228,2.22396 1.78998,4.15572 2.68496,6.23357 0.89499,2.07786 2.47375,3.98172 2.68497,6.23358 0.38342,4.08778 -1.78998,8.01462 -2.68497,12.02193 -0.89498,4.00731 -0.46597,8.56476 -2.68496,12.02193 -0.0607,0.0946 -0.22548,0.10042 -0.26871,0.20415 -0.26163,0.62782 -0.094,1.44654 0.26871,2.02214 3.27954,5.2048 10.05265,7.16152 15.46016,10.10733 5.22538,2.84659 10.39613,7.92289 16.31185,7.25763 1.02894,-0.11571 1.65459,-1.24289 2.48454,-1.8608 0.36437,-0.27128 0.9589,-0.37799 1.09542,-0.81073 0.28255,-0.89562 -0.59665,-1.78103 -0.89498,-2.67154 -0.29833,-0.89051 -1.12526,-1.76113 -0.89498,-2.67154 0.42556,-1.68243 2.5358,-2.3747 3.8037,-3.56205 1.26789,-1.18734 2.85272,-2.10938 3.80369,-3.56204 0.73344,-1.12036 0.89498,-2.52312 1.34248,-3.78468 0.44749,-1.26156 0.38513,-2.84759 1.34247,-3.78468 1.51497,-1.48291 4.02744,-1.33577 6.04117,-2.00366 2.01372,-0.66789 4.49342,-0.55486 6.04116,-2.00366 3.04278,-2.84827 3.13245,-7.71777 4.69868,-11.57665 1.56622,-3.85888 4.74272,-7.41344 4.69867,-11.57665 -0.012,-1.13079 -0.89499,-2.07786 -1.34248,-3.11679 -0.44749,-1.03893 -1.43422,-1.98965 -1.34248,-3.11679 0.15713,-1.93047 2.0883,-3.26521 3.13245,-4.89782 1.04415,-1.6326 1.54033,-3.79031 3.13245,-4.89781 2.00398,-1.394 4.77327,-1.03893 7.1599,-1.5584 2.38663,-0.51946 5.28057,-10e-4 7.1599,-1.55839 2.35981,-1.9555 2.38663,-5.63991 3.57995,-8.45987 1.19332,-2.81995 3.09969,-5.43649 3.57995,-8.45986 0.54919,-3.45735 -0.59666,-6.97568 -0.89499,-10.46352 -0.29833,-3.48784 -1.82467,-7.0882 -0.89499,-10.46352 0.84857,-3.08084 3.72911,-5.19465 5.59367,-7.79197 1.86456,-2.59732 4.44691,-4.80885 5.59367,-7.79197 0.96478,-2.50971 0.59665,-5.34307 0.89498,-8.01461 0.29833,-2.67154 2.17831,-5.65127 0.89498,-8.01461 -4.06602,-7.48784 -15.25761,-7.63374 -22.86509,-11.49268 -7.60739,-3.85889 -16.736,-5.64751 -22.77922,-11.66065 -1.95596,-1.94622 -2.5358,-4.89781 -3.8037,-7.34672 -1.2679,-2.44891 -1.61776,-5.66178 -3.8037,-7.34672 -1.87562,-1.44575 -4.6241,-1.03893 -6.93615,-1.5584 -2.31204,-0.51947 -5.14666,-0.008 -6.93614,-1.5584 -2.70188,-2.34133 -2.53579,-6.67885 -3.80369,-10.01827 -1.2679,-3.33942 -0.7416,-8.17059 -3.80369,-10.01827 -2.63604,-1.5906 -6.11574,0.74209 -9.17362,1.11314 -3.05787,0.37105 -6.19015,1.87828 -9.17361,1.11314 -3.20446,-0.82182 -5.36993,-3.85888 -8.05489,-5.78832 -2.68496,-1.92943 -4.74963,-5.9361 -8.05489,-5.78831 -3.74503,0.16745 -5.66825,4.89781 -8.50237,7.34672 -2.83412,2.44891 -6.94439,3.94382 -8.50237,7.34672 -0.15451,0.33749 0,0.7421 0,1.11314 0,0.37105 0.28934,0.88014 0,1.11315 -2.1339,1.71852 -5.40367,-0.98329 -8.04038,-1.73438 -2.59433,-0.73902 -5.73376,-0.7948 -7.62179,-2.71819 -1.31681,-1.34147 -1.19331,-3.56205 -1.78997,-5.34308 -0.59666,-1.78102 -1.48772,-3.48952 -1.78997,-5.34307 -0.31054,-1.90439 0,-3.85888 0,-5.78833 0,-1.92944 1.44305,-4.50432 0,-5.78832 -1.45695,-1.29637 -3.87828,0.44525 -5.81742,0.66787 -1.93913,0.22263 -4.45438,2.06229 -5.81741,0.66788 -2.6217,-2.68206 1.0417,-7.42136 1.56378,-11.13187 0.52207,-3.71042 4.03156,-8.30303 1.56865,-11.13092 -0.73391,-0.84267 -2.23747,0 -3.35621,0 -1.11873,0 -2.34909,-0.48616 -3.3562,0 -1.62229,0.78313 -2.23747,2.81995 -3.3562,4.22993 -1.11873,1.40998 -1.95691,3.09661 -3.3562,4.22993 -0.90591,0.73372 -2.0883,1.03893 -3.13245,1.5584 -1.04415,0.51947 -1.9662,1.59065 -3.13245,1.5584 -1.80188,-0.0498 -3.13246,-1.78102 -4.69869,-2.67154 -1.56622,-0.89051 -3.73359,-1.15211 -4.69868,-2.67153 -1.03816,-1.63445 -0.29833,-3.85889 -0.4475,-5.78833 -0.14916,-1.92944 -0.51081,-3.85418 -0.44749,-5.78833 0.0687,-2.09797 0.59666,-4.15572 0.89499,-6.23359 0.29833,-2.07786 -0.16445,-4.42023 0.89499,-6.23358 1.47116,-2.51806 4.6241,-3.56205 6.93614,-5.34308 2.31205,-1.78102 4.17182,-4.40219 6.93615,-5.34307 1.76475,-0.60066 3.72911,0 5.59367,0 1.86456,0 4.06904,1.07121 5.59367,0 0.90419,-0.63528 0.74582,-2.07786 1.11873,-3.11679 0.37291,-1.03893 0.14974,-2.5851 1.11873,-3.11679 2.07673,-1.13952 4.6241,1.03892 6.93615,1.55838 2.31206,0.51947 4.92839,0.30179 6.93616,1.55839 2.3344,1.46102 3.43078,4.30415 5.14617,6.45622 1.71539,2.15207 2.50919,7.2539 5.14617,6.45622 3.42763,-1.03684 0.59666,-7.1241 0.89498,-10.68616 0.29833,-3.56205 -0.76824,-7.52047 0.89499,-10.68615 1.7938,-3.4142 5.96658,-4.89781 8.94987,-7.34672 2.98329,-2.4489 6.66785,-4.23627 8.94987,-7.34671 1.65661,-2.258 2.0883,-5.19465 3.13245,-7.79198 1.04415,-2.59732 1.14754,-5.81514 3.13245,-7.79197 1.70507,-1.69813 4.47494,-1.78102 6.71241,-2.67154 2.23747,-0.89051 4.84003,-1.15908 6.71241,-2.67153 1.66871,-1.34792 2.38663,-3.56205 3.57994,-5.34308 1.19332,-1.78103 1.78602,-4.16621 3.57995,-5.34308 2.40789,-1.57964 5.66825,-1.03893 8.50237,-1.5584 2.83413,-0.51947 6.08802,0.0114 8.50238,-1.5584 2.1102,-1.372 2.83413,-4.15572 4.25119,-6.23358 1.41706,-2.07786 5.42889,-4.01184 4.25119,-6.23358 -1.98795,-3.75025 -8.50238,0 -12.75357,0 -4.25119,0 -11.82579,4.14044 -12.75356,0 -0.64765,-2.89034 5.36992,-2.52312 8.05488,-3.78469 2.68497,-1.26156 5.15878,-3.13832 8.05489,-3.78468 1.81961,-0.4061 3.72911,0 5.59366,0 1.86455,0 3.75446,0.3058 5.59366,0 2.4886,-0.41378 4.77327,-1.6326 7.1599,-2.4489 2.38663,-0.8163 4.97607,-3.70967 7.1599,-2.4489 2.03255,1.17343 0.89499,4.60098 1.34248,6.90147 0.44749,2.30049 -0.96419,6.46309 1.34248,6.90147 1.90644,0.36231 2.0883,-3.26521 3.13245,-4.89782 1.04416,-1.63261 3.51975,-2.99995 3.13246,-4.89782 -0.28871,-1.4148 -2.38664,-1.63261 -3.57996,-2.44891 -1.19331,-0.8163 -3.10392,-1.08546 -3.57995,-2.44891 -0.33287,-0.9534 0.59666,-1.92944 0.89499,-2.89416 0.29833,-0.96471 1.15874,-1.91945 0.89499,-2.89415 -0.34354,-1.26956 -1.93914,-1.78103 -2.90871,-2.67155 -0.96956,-0.89052 -1.75917,-2.02876 -2.9087,-2.67155 -0.94715,-0.52962 -2.08831,-0.59367 -3.13246,-0.89051 -1.04415,-0.29683 -2.5968,0.052 -3.13246,-0.8905 -0.56964,-1.00226 0.59666,-2.22628 0.89499,-3.33942 0.29833,-1.11313 1.02311,-2.19426 0.89499,-3.33941 -0.19574,-1.74952 -1.64081,-3.11679 -2.46122,-4.67519 -0.8204,-1.55839 -0.80654,-4.06529 -2.46121,-4.67518 -1.88303,-0.69407 -3.72911,1.48418 -5.59367,2.22627 -1.86456,0.7421 -4.058,3.51644 -5.59367,2.22628 -1.10465,-0.92805 0.59666,-2.81995 0.89499,-4.22993 0.29834,-1.40997 1.47969,-2.91228 0.895,-4.22992 -1.01441,-2.28606 -4.32577,-2.52312 -6.48866,-3.78469 -2.16289,-1.26156 -4.06727,-4.42593 -6.48866,-3.78468 -3.31867,0.87887 -3.43078,5.93675 -5.14617,8.90512 -1.71538,2.96837 -4.49634,5.54038 -5.14616,8.90512 -0.19903,1.03058 0.29835,2.07786 0.44752,3.11679 0.14917,1.03894 0.96065,2.20067 0.44752,3.1168 -0.91225,1.6287 -3.43078,1.48419 -5.14617,2.22628 -1.71538,0.74209 -3.81341,0.9177 -5.14616,2.22628 -1.80389,1.77118 -2.0883,4.60098 -3.13246,6.90146 -1.04415,2.30049 -0.61305,7.13825 -3.13245,6.90147 -2.2089,-0.2076 -1.04415,-4.30415 -1.56623,-6.45622 -0.52207,-2.15207 -0.11995,-4.77707 -1.56622,-6.45622 -2.04855,-2.37841 -5.81742,-2.37469 -8.72613,-3.56204 -2.9087,-1.18735 -6.59383,-1.25811 -8.72612,-3.56204 -1.16511,-1.25889 -1.04415,-3.26521 -1.56623,-4.89781 -0.52207,-1.6326 -2.19364,-3.30257 -1.56622,-4.89781 1.65843,-4.2166 7.90572,-4.45256 11.85857,-6.67885 3.95286,-2.22628 8.21183,-3.98192 11.85858,-6.67884 1.90447,-1.40843 3.43078,-3.26521 5.14616,-4.89782 1.71539,-1.63261 4.12997,-2.76061 5.14617,-4.89782 0.83129,-1.74832 0.29835,-3.85888 0.44752,-5.78833 0.14918,-1.92944 1.3781,-4.09055 0.44753,-5.78832 -0.52812,-0.96352 -1.93914,-1.03893 -2.90871,-1.5584 -0.96956,-0.51947 -1.85895,-1.22889 -2.9087,-1.5584 -1.21778,-0.38225 -2.5358,-0.29683 -3.8037,-0.44525 -1.2679,-0.14841 -2.53703,-0.28667 -3.8037,-0.44524 -3e-5,0 -5e-5,-10e-6 -8e-5,-10e-6 -2e-5,0 -5e-5,-2e-5 -7e-5,-10e-6 z m 191.97469,21.37232 c -0.84126,0.83958 0,2.37468 0,3.56202 0,1.18735 -0.42706,2.45382 0,3.56203 0.35959,0.93311 1.34248,1.48419 2.01372,2.22628 0.67124,0.7421 1.65413,1.29318 2.01372,2.22629 0.6406,1.66232 0,3.56205 0,5.34308 0,1.78103 0.13857,3.56743 0,5.34308 -0.18702,2.39643 -0.74582,4.74939 -1.11873,7.12409 -0.37292,2.3747 -2.85048,5.45354 -1.11874,7.12409 1.41967,1.3695 3.87828,-0.7421 5.81742,-1.11315 1.93913,-0.37104 4.07219,-0.19158 5.81741,-1.11314 1.7687,-0.93396 2.83413,-2.81995 4.2512,-4.22992 1.41706,-1.40997 4.28149,-2.23313 4.25119,-4.22992 -0.0263,-1.73502 -2.5358,-2.37471 -3.8037,-3.56206 -1.2679,-1.18735 -2.82316,-2.12911 -3.8037,-3.56206 -1.91771,-2.80254 -2.45174,-6.3327 -3.79467,-9.45054 -1.34286,-3.11765 -1.39746,-7.41899 -4.2602,-9.25017 -0.87909,-0.56232 -2.08831,0 -3.13246,0 -1.04415,0 -2.39413,-0.73685 -3.13246,0 z m -9.84487,14.24815 c -1.00671,-0.73931 -2.38662,0.7421 -3.57993,1.11315 -1.19332,0.37106 -2.91005,0.0601 -3.57994,1.11316 -1.16674,1.83417 0.59665,4.30414 0.89498,6.4562 0.29833,2.15207 -1.03991,5.46064 0.89498,6.45621 1.5705,0.80808 3.13245,-1.63262 4.69868,-2.44893 1.56622,-0.8163 4.07994,-0.79715 4.69867,-2.44892 0.64334,-1.71748 -1.34248,-3.41362 -2.01372,-5.12044 -0.67124,-1.70681 -1.67214,-3.31883 -2.01372,-5.12043 l 0,0 z M 613.67838,676.1863 c 2.57443,-0.95262 3.57994,4.15572 5.36992,6.23358 1.78997,2.07787 3.87811,3.93312 5.36991,6.23359 2.76679,4.2666 4.32577,9.20196 6.48866,13.80294 2.16289,4.60099 3.67035,9.57007 6.48866,13.80295 1.1088,1.66533 2.68495,2.96836 4.02743,4.45254 1.34248,1.48419 3.7,2.47997 4.02743,4.45255 0.27778,1.67348 -1.34247,3.11681 -2.01371,4.67521 -0.67123,1.5584 -2.26383,2.99739 -2.0137,4.67521 0.27215,1.82554 2.38663,2.81995 3.57994,4.22993 1.19332,1.40998 4.30626,2.5326 3.57995,4.22993 -0.64117,1.49837 -3.25729,0.22986 -4.88814,0.3038 -1.65121,0.0749 -3.56272,1.02794 -4.95671,0.1415 -5.94276,-3.779 -5.7688,-12.83729 -8.37982,-19.36923 -2.61185,-6.534 -3.64061,-13.79022 -7.28246,-19.8133 -1.03511,-1.71192 -2.68496,-2.96837 -4.02744,-4.45256 -1.34248,-1.48419 -3.06162,-2.70076 -4.02744,-4.45256 -1.3396,-2.42977 -1.49165,-5.34308 -2.23747,-8.01462 -0.74582,-2.67153 -2.94539,-5.33282 -2.23747,-8.01461 0.18781,-0.71147 1.04415,-1.03893 1.56623,-1.55839 0.52208,-0.51946 1.2836,-0.87886 1.56623,-1.55839 0,-10e-6 0,-2e-5 0,-4e-5 0,-10e-6 -10e-6,-3e-5 0,-3e-5 z" id="path4211" style="opacity:0.6;fill:url(#radialGradient3869);fill-opacity:1;fill-rule:nonzero;stroke:none" />
   </g>
   <path d="M 587.57222,-171.26518 C 672.22311,-148.84722 537.00934,158.09305 294.11205,316.13807 134.07713,420.26734 95.796857,1041.5261 23.560495,1016.9721 -83.857659,980.45932 -240.43701,527.64175 -64.033049,159.30341 7.1401088,10.691088 431.69332,-212.54634 587.57222,-171.26518 z" transform="matrix(0.47018342,0,0,0.59162937,85.760779,106.55616)" clip-path="url(#clipPath4616)" id="path4233" style="fill:#ffffff;fill-opacity:0.10852715;fill-rule:nonzero;stroke:none;filter:url(#filter4736)" />
   <path d="m 417.36724,739.32943 c 77.29295,15.28827 215.9813,72.86336 236.34896,-3.24899 12.97734,-48.49528 -75.61126,-80.13656 -129.43049,-77.00376 -48.58764,2.82827 -138.59363,-24.26162 -127.25336,-71.59191 18.25876,-76.20562 157.8305,-24.19221 234.87884,-9.90123" transform="matrix(0.03038149,0,0,0.03418423,509.44981,388.99919)" id="SJ" style="opacity:0.75;fill:none;stroke:url(#linearGradient4017);stroke-width:9.89663887;stroke-linecap:round;stroke-linejoin:round;stroke-miterlimit:4;stroke-opacity:1;stroke-dasharray:none;stroke-dashoffset:0;filter:url(#filter4013)">
    <desc id="desc4019">Stefy Calderón Rivas, te amo con toda mi alma, eres mi razón de vivir, mi locura y cordura, quien me comprende, me cuida y, sobre todo, me ama, te amo muchisimo, y esto es algo que lo siento para siempre porque has llegado a conseguir que sin ti no sepa, ni quiera, vivir.

Te amo Stefy, sinceramente:
Jesús Hernández Gormaz.</desc>
   </path>
   <path d="m 192.29266,252.79668 c -37.66118,0 -56.76016,39.38085 -66.26323,72.63728 -14.36166,50.03158 -12.16107,90.17765 0,131.99029 10.15653,34.90022 30.89118,66.01708 66.26323,66.01708 l 130.92134,0 c 42.37914,0 65.36662,-30.82474 65.36662,-66.01708 l 0.7147,-117.37718 c 0,-43.97422 44.89535,-88.46614 89.84056,-88.46614 l 44.65265,0 0,-58.18191 c 0,-38.43539 -28.52258,-56.51587 -66.27225,-65.99527 -52.47009,-13.21681 -91.70433,-13.80232 -132.60131,0 -39.72902,13.32926 -70.98673,27.62736 -70.98673,65.99527 l 0,59.39766 0,138.60998 0.28359,0 -0.46595,-138.60998 -61.38736,0 z" id="path2744" style="fill:url(#linearGradient4213);fill-opacity:1;stroke:url(#linearGradient4215);stroke-width:17;stroke-miterlimit:4;stroke-dasharray:none" />
   <path d="m 603.79019,543.57758 c 37.38985,0 56.3089,-39.29091 65.76879,-72.4568 14.22802,-49.91871 12.04667,-89.9977 0,-131.69786 -10.08545,-34.85515 -30.65,-65.88225 -65.76879,-65.88225 l -123.30359,0 c -35.50144,0 -71.4352,29.81127 -71.4352,65.88225 l 0,122.69115 c 0,34.44988 -37.61467,82.70176 -82.19903,82.70176 l -51.90715,0 0,58.04703 c 0,38.34511 28.26603,56.40327 65.75018,65.85995 52.04329,13.17205 90.98589,13.75764 131.54681,0 39.41354,-13.30705 70.44548,-27.55983 70.44548,-65.85995 l 0,-59.28528 0,-138.29485 -0.29586,0 0.45346,138.29485 60.89675,0 z" id="path3530" style="fill:url(#linearGradient3166);fill-opacity:1;stroke:url(#linearGradient3168);stroke-width:17;stroke-miterlimit:4;stroke-dasharray:none" />
  </g>
  <path d="m 63.736598,11.933457 v 23" id="path4763" style="fill:none;stroke:url(#linearGradient5236);stroke-width:1px" />
  <path d="M 57.584988,9.702466 H 70.414957 V 49.101914 H 66.62584 62.746913 59.624953 57.584988 V 9.702466 z" id="rect3326" style="opacity:0.4;fill:url(#linearGradient5242)" />
 </g>
 <g transform="matrix(0.78842734,0,0,0.84566035,26.97763,19.006399)" id="g4296">
  <path d="M 127.51,87.5 96.923,124.51 66.493,87.5 H 80.5 V 57.493 h 33 V 87.5 h 14.01 z" id="path3288" style="fill:url(#radialGradient5087);stroke:url(#linearGradient5089);stroke-width:0.98543;stroke-linecap:round;stroke-linejoin:round" />
  <path d="m 81.5,58.5 v 30 H 68.493 c 0,0 28.444,34 28.444,34 0,0 28.573,-34 28.573,-34 H 112.5 v -30 h -31 z" id="path4188" style="opacity:0.4;fill:none;stroke:url(#linearGradient5091);stroke-width:0.98543;stroke-linecap:round;stroke-linejoin:round" />
 </g>
</svg>
